# xmcd
#
# Track frame offsets:
#	150
#	14810
#	32791
#	50717
#	62414
#	81366
#	89677
#	101258
#	116113
#	131961
#	148292
#	166664
#	180929
#	193216
#	207880
#	220342
#	236960
#	249022
#	261518
#	272476
#
# Disc length: 3785 seconds
#
# Revision: 0
# Processed by: cddbd v1.5.2PL0 Copyright (c) Steve Scherf et al.
# Submitted via: audiograbber 1.83.01
#
DISCID=310ec714
DTITLE=Various Artist - Country Love Songs, CD 3
DYEAR=2004
DGENRE=Country
TTITLE0=Bobbie Gentry and Glen Campbell - Little Green Apples
TTITLE1=Dottie West - Hey Mr. Dream Maker
TTITLE2=Eddie Rabbitt and Crystal Gayle - You And I
TTITLE3=Billie Jo Spears - Love Letters In The Sand
TTITLE4=Kenny Rogers - She Believers In Me
TTITLE5=The Nitty Gritty Dirt Band - Hey Good Lookin'
TTITLE6=Wanda Jackson - Cold Cold Heart
TTITLE7=Tanya Tucker - Delta Dawn
TTITLE8=Suzy Bogguss - My Side Of The Story
TTITLE9=Larry Gatlin and The Gatlin Brothers - Country Girl Heart
TTITLE10=Billy ''Crash'' Craddock - I Just Had You On My Mind
TTITLE11=Dr. Hook - If Not You
TTITLE12=Del Reeves and Billie Jo Spears - Let Your Love Flow
TTITLE13=Gail Davies - I'm A Little Bit Lonely
TTITLE14=Jean Shepard - My Wedding Ring
TTITLE15=Slim Whitman - Let Me Call You Sweetheart (I'm In Love With You)
TTITLE16=Willie Nelson and Shirley Collie - Our Chain Of Love
TTITLE17=Lee Greenwood and Suzy Bogguss - Hopelessy Yours
TTITLE18=Crystal Gayle - Somebody Loves You
TTITLE19=Glen Campbell - Everything A Man Could Ever Need
EXTD=
EXTT0=
EXTT1=
EXTT2=
EXTT3=
EXTT4=
EXTT5=
EXTT6=
EXTT7=
EXTT8=
EXTT9=
EXTT10=
EXTT11=
EXTT12=
EXTT13=
EXTT14=
EXTT15=
EXTT16=
EXTT17=
EXTT18=
EXTT19=
PLAYORDER=
